<svg version="1.0" xmlns="http://www.w3.org/2000/svg" width="100%" height="100%" viewBox="0 0 819 763" fill="#E43636"><path d="M107.9 2.1C66.1 8.3 29 36.3 10 76.3 7.3 81.9 3.9 90.8 2.5 96L0 105.5v495.2l2.5 9.7c6.7 26.8 24.1 52.4 47.4 69.9 15.3 11.5 32.3 19.4 52.6 24.4 6.5 1.6 23.6 1.8 234 2 250.2.4 234.9.8 246.3-5.7 17.5-10.1 19.1-37 3.1-51.4-8.6-7.8-6.9-7.6-77-7.6h-61.7l-4.3-5.8c-2.4-3.1-18.8-24.5-36.6-47.5L374 547l51.7-66.3c87-111.6 96.5-123.5 179.9-227.3.6-.8 1.4-1.4 1.7-1.4.3 0 18.9 20.4 41.4 45.2 78.9 87.6 116.2 128.1 121.6 132.2 4.6 3.3 9.1 4.6 16.6 4.6 12.2 0 22.9-6 28.5-16l3.1-5.5.3-147c.2-101.1-.1-149.7-.8-155.5-5.6-44.3-38.8-84.9-82.5-101.3-3.8-1.5-10.8-3.7-15.5-4.9l-8.5-2.3-299-.1c-164.4-.1-301.5.2-304.6.7zM708 68.3c17.4 5.9 32.4 18.6 39.8 33.7 7.6 15.5 7.2 9.2 7.2 116.9v96.5l-3.6-3.5c-6.7-6.4-37.8-40.2-74.4-80.9-47.7-52.9-53.9-59.2-60.9-61.3-10.4-3.3-21.9-1.7-30.7 4.4-2.4 1.6-11.6 12.3-22.5 26.1-10.1 12.8-50.7 64.5-90.3 114.8C389.9 420.2 333 492 332.5 492c-.7 0-12.5-15-37-47-43.4-56.7-51.2-66-59-69.6-9.8-4.6-25-2.6-33.7 4.6-2 1.7-9 9.9-15.5 18.3-6.6 8.3-17.7 22.6-24.8 31.7-19.4 24.7-37.5 49.8-40.3 55.8-8.7 18.9 8.8 43.2 31.1 43.2 3.7 0 8.4-.7 10.3-1.5 7.5-3.1 17.7-14.1 39.9-43 8.5-11 16.5-21.2 17.7-22.8l2.3-2.7 26.5 34.2c14.6 18.9 46.2 59.9 70.3 91.3l43.9 57-104.9.3c-117.9.2-142.4-.3-152-3.6-18.3-6.4-32.7-20.6-40.2-40l-2.6-6.7v-474l2.4-7.4c6-18.3 22.9-35.1 41.6-41.2 5.8-1.9 84.5-2.5 360-2.4 224.8 0 234.2.1 239.5 1.8z"/><path d="M211 116.6c-9.2 1.8-23.6 6.1-29.6 8.9-32.1 14.8-52.5 47.1-54.1 85.8-1.2 28.6 6.9 50.9 25.4 69.3 15.1 15.1 27.5 22.9 43.8 27.6 7 2 10.1 2.3 25 2.2 15.1 0 18.1-.3 26.6-2.6 29.7-8 54.3-28.1 65.5-53.5 5.8-13 9.3-37.4 7.5-52.1-4.7-38.6-35-72.8-73.6-83.2-7.8-2.2-30.2-3.6-36.5-2.4zm24.6 67.7c6.8 3.4 14.7 12.2 17.5 19.5 2.8 7.2 3 16.1.6 22.4-2.2 5.7-10.2 13.4-17.9 17.2-14.2 7.1-32-.9-40.4-17.9-3.8-7.9-4.1-19.7-.7-26 3.5-6.5 12.4-14.1 20-17 5.5-2.1 14.7-1.3 20.9 1.8zM674.5 460.7c-15.6 3.3-25 8.6-41.8 23.7-33.6 30-62.1 59.2-68.2 69.9-2.6 4.6-3 6.1-3 13.2.1 6.5.5 9.1 2.7 13.7 7.9 17 26.1 25 40.3 17.6 9.1-4.7 17.8-11.9 35.2-29.1 9.5-9.4 17.6-16.7 18-16.4.3.4.7 42.2.8 93 .2 92.1.2 92.2 2.3 97.8 2.9 7.2 8.2 13.3 14.3 16.4 4.3 2.2 6.1 2.5 16.7 2.5 11.2 0 12-.1 16.3-2.8 4.8-3.1 10-8.6 12.3-13 3.9-7.5 3.9-8.3 4.5-101.7l.6-91 17 17.4c17.5 17.9 29.6 28 36.1 30.1 5.6 1.9 15.9.8 22-2.3 6.5-3.3 14.7-12.2 16.8-18.3 2-5.9 2.1-19.2.2-23.8-2.3-5.6-18.7-23.8-47.5-52.9-17.9-18.1-30-29.5-34.5-32.4-17.1-11.5-40.8-16-61.1-11.6z"/></svg>